<?xml version="1.0" encoding="utf-8"?>
<!-- Generator: Adobe Illustrator 26.0.1, SVG Export Plug-In . SVG Version: 6.00 Build 0)  -->
<svg version="1.1" id="Слой_1" xmlns="http://www.w3.org/2000/svg" xmlns:xlink="http://www.w3.org/1999/xlink" x="0px" y="0px"
	 viewBox="0 0 1775 363" style="enable-background:new 0 0 1775 363;" xml:space="preserve">
<style type="text/css">
	.st0{fill:#6BDAAA;}
	.st1{fill:#0F60FF;}
	.st2{fill:#2776F9;}
	.st3{fill:#3E8DF4;}
	.st4{fill:#56A3EE;}
	.st5{fill:#6EB9E8;}
	.st6{fill:#85D0E3;}
	.st7{fill:#9DE6DD;}
</style>
<g id="slogan" transform="translate(11 0)">
	<path id="path143421" class="st0" d="M594.75,324.89c-1.67-0.17-3.82-0.26-6.46-0.26h-15.78v30.21h-14.27v-69.65
		c0.94,0.07,2.01,0.12,3.23,0.16l3.85,0.1c2.64,0.07,5.38,0.1,8.23,0.1c8.54,0,16.7-0.14,24.48-0.42
		c-0.38,3.06-0.57,7.14-0.57,12.24c0,0.56,0.03,0.97,0.1,1.25l-0.1,0.16c-1.84-0.52-4.41-0.78-7.71-0.78h-17.24v14.33h15.21
		c3.82,0,6.11-0.1,6.88-0.31L594.75,324.89z"/>
	<path id="path143423" class="st0" d="M648.31,327.91c-1.04,0.07-2.15,0.1-3.33,0.1s-2.93-0.09-5.26-0.26v27.09h-13.8v-69.65
		c4.86-0.63,10.84-0.94,17.92-0.94c9.65,0,16.84,1.79,21.57,5.37c4.76,3.54,7.14,9.03,7.14,16.46c0,5.76-2.17,10.7-6.51,14.79
		c-1.42,1.32-3.06,2.47-4.9,3.44l10.63,22.4c2.08,4.62,3.68,7.36,4.79,8.23l-0.26,0.26c-3.37-0.56-8.66-0.54-15.89,0.05
		L648.31,327.91z M644.82,296.55c-1.77,0-3.47,0.09-5.11,0.26v19.9c1.7,0.24,3.7,0.36,5.99,0.36c2.29,0,4.22-0.19,5.78-0.57
		c1.56-0.42,2.92-1.04,4.06-1.88c2.47-1.84,3.7-4.6,3.7-8.28c0-3.68-1.28-6.27-3.85-7.76C653,297.23,649.48,296.55,644.82,296.55z"
		/>
	<path id="path143425" class="st0" d="M707.4,355.26c-2.99-0.28-6.48-0.42-10.47-0.42h-4.12l22.66-63.5
		c1.01-2.85,1.51-4.5,1.51-4.95c0-0.49-0.02-0.78-0.05-0.89l0.05-0.1c2.26,0.1,4.65,0.16,7.19,0.16c2.08,0,4.58-0.03,7.5-0.1
		l0.05,0.1c-0.07,0.14-0.1,0.33-0.1,0.57c0,0.66,0.52,2.41,1.56,5.26L756.31,355c-0.69-0.03-1.51-0.05-2.45-0.05
		c0,0-0.9-0.03-2.71-0.1c-0.87,0-1.65,0-2.34,0h-8.07l-4.9-15h-23.55L707.4,355.26z M731.78,327.34l-7.87-24.22l-7.66,24.22H731.78z
		"/>
	<path id="path143427" class="st0" d="M793.05,355.15c-1.67-0.21-4.88-0.31-9.64-0.31h-4.17v-69.49c2.22,0.14,4.67,0.21,7.35,0.21
		s4.57-0.14,5.68-0.42l17.5,29.74l16.83-29.74c1.11,0.28,3.23,0.42,6.36,0.42c3.13,0,5.8-0.07,8.02-0.21v69.49h-4.17
		c-4.76,0-7.97,0.1-9.64,0.31v-46.68l-17.03,30.47l-17.09-28.03V355.15z"/>
	<path id="path143429" class="st0" d="M908.39,342.34c2.15,0,3.65-0.21,4.48-0.63l0.21,0.05l-0.52,13.08h-39.02v-69.65
		c0.94,0.07,1.98,0.12,3.13,0.16l3.65,0.1c2.43,0.07,5.07,0.1,7.92,0.1c7.95,0,15.82-0.14,23.6-0.42
		c-0.38,3.06-0.57,7.14-0.57,12.24c0,0.56,0.03,0.97,0.1,1.25l-0.1,0.16c-1.81-0.52-4.38-0.78-7.71-0.78h-16.41v13.28h12.35
		c3.82,0,6.11-0.1,6.88-0.31l0.16,12.87c-1.67-0.17-3.82-0.26-6.46-0.26h-12.92v18.75L908.39,342.34z"/>
	<path id="path143431" class="st0" d="M966.23,355.05c-1.04-0.14-2.81-0.21-5.31-0.21h-6.04c-1.18,0-2.15,0.03-2.92,0.1l-0.05-0.1
		c0.14-0.24,0.21-0.52,0.21-0.83s-0.03-0.64-0.1-0.99c-0.03-0.35-0.17-0.97-0.42-1.88c-0.21-0.9-0.54-2.21-0.99-3.91l-17.71-61.89
		c2.22,0.14,4.91,0.21,8.07,0.21c3.16,0,5.21-0.14,6.15-0.42l12.29,47.14l11.98-46.94c0.52,0.03,0.99,0.07,1.41,0.1h1.15
		c1.15,0.07,2.59,0.1,4.32,0.1c1.74,0,3.53-0.14,5.37-0.42l12.19,47.14l10.47-46.94c2.08,0.14,4.81,0.21,8.18,0.21
		c3.37,0,5.42-0.14,6.15-0.42l-15,54.96c-1.91,6.32-2.92,10.07-3.02,11.25c-0.1,1.18-0.16,2-0.16,2.45s0.07,0.82,0.21,1.09
		l-0.1,0.16c-1.11-0.14-2.87-0.21-5.26-0.21c-2.08,0-3.98,0-5.68,0s-2.93,0.03-3.7,0.1l-0.05-0.1c0.14-0.24,0.21-0.52,0.21-0.83
		s-0.02-0.63-0.05-0.94c-0.03-0.31-0.14-0.9-0.31-1.77c-0.14-0.9-0.38-2.22-0.73-3.96l-1.41-7.08l-8.54-32.45l-8.13,32.3
		c-1.67,6.63-2.54,10.45-2.6,11.46c-0.14,1.91-0.12,3.02,0.05,3.33L966.23,355.05z"/>
	<path id="path143433" class="st0" d="M1050.63,346.61c-3.16-3.02-5.66-6.65-7.5-10.89c-1.81-4.24-2.71-8.87-2.71-13.91
		c0-5.07,0.85-9.86,2.55-14.38s4.13-8.49,7.29-11.93c3.16-3.44,6.98-6.16,11.46-8.18c4.48-2.05,9.5-3.07,15.05-3.07
		c9.59,0,17.66,3.02,24.22,9.06c7.02,6.46,10.52,15.18,10.52,26.15c0,10.63-3.61,19.47-10.84,26.52c-4.45,4.34-9.74,7.33-15.89,8.96
		c-3.02,0.8-6.56,1.2-10.63,1.2c-4.03,0-8.18-0.83-12.45-2.5C1057.49,351.98,1053.79,349.63,1050.63,346.61z M1054.9,321.09
		c0,3.23,0.54,6.2,1.61,8.91c1.08,2.71,2.57,5.04,4.48,6.98c4.06,4.1,9.29,6.15,15.68,6.15c6.08,0,10.96-1.96,14.64-5.89
		c3.75-4.06,5.63-9.6,5.63-16.62c0-6.6-1.79-12.1-5.37-16.51c-3.85-4.72-9.13-7.08-15.84-7.08c-6.49,0-11.65,2.4-15.47,7.19
		C1056.69,308.69,1054.9,314.31,1054.9,321.09z"/>
	<path id="path143435" class="st0" d="M1161.7,327.91c-1.04,0.07-2.15,0.1-3.33,0.1c-1.18,0-2.93-0.09-5.26-0.26v27.09h-13.8v-69.65
		c4.86-0.63,10.84-0.94,17.92-0.94c9.65,0,16.84,1.79,21.57,5.37c4.76,3.54,7.14,9.03,7.14,16.46c0,5.76-2.17,10.7-6.51,14.79
		c-1.42,1.32-3.06,2.47-4.9,3.44l10.63,22.4c2.08,4.62,3.68,7.36,4.79,8.23l-0.26,0.26c-3.37-0.56-8.66-0.54-15.89,0.05
		L1161.7,327.91z M1158.21,296.55c-1.77,0-3.47,0.09-5.1,0.26v19.9c1.7,0.24,3.7,0.36,5.99,0.36s4.22-0.19,5.78-0.57
		c1.56-0.42,2.92-1.04,4.06-1.88c2.47-1.84,3.7-4.6,3.7-8.28c0-3.68-1.29-6.27-3.85-7.76
		C1166.39,297.23,1162.86,296.55,1158.21,296.55z"/>
	<path id="path143437" class="st0" d="M1229.01,355.15c-2.4-0.21-5.45-0.31-9.17-0.31h-4.12v-69.49l2.08,0.1
		c1.46,0.07,2.55,0.1,3.28,0.1h1.51c3.06,0,5.19-0.14,6.41-0.42v29.43l21.1-29.22c2.22,0.14,4.1,0.21,5.63,0.21h2.87
		c3.58,0,6.13-0.14,7.66-0.42l-20.11,26.25l19.8,39.28c0.83,1.91,1.61,3.3,2.34,4.17h-3.18c-7.33,0-11.89,0.14-13.7,0.42
		c-0.38-2.33-0.9-4.36-1.56-6.09l-13.28-25.32l-7.55,9.9V355.15z"/>
</g>
<g id="title" transform="translate(0 0)">
	<path id="path143440" class="st1" d="M205.17,66.43c-9.52-15-22.79-26.83-39.81-35.2c-17.31-8.08-36.93-12.41-58.86-12.41H11v45.59
		h93.19c17.31,0,31.16,4.9,41.55,14.71c10.39,10.1,15.87,23.66,15.87,40.68c0,17.31-5.48,30.87-15.87,40.68
		c-10.39,9.81-24.24,14.71-41.55,14.71H68.13v-53.66H11v99.25h95.5c21.93,0,41.55-4.04,58.86-12.41
		c17.02-8.08,30.29-19.91,39.81-35.2c9.23-15,14.14-32.89,14.14-53.38C219.31,99.61,214.4,81.72,205.17,66.43z"/>
	<path id="path143442" class="st2" d="M421.53,18.82h-56.26l-89.15,201.96h58.28l15.87-39.24L367,139.42l25.97-64.63l25.97,64.63
		l16.73,42.12l15.87,39.24h59.43L421.53,18.82z"/>
	<path id="path143444" class="st3" d="M723.79,157.31c12.41-6.06,22.22-14.43,29.14-25.39c6.92-10.96,10.39-23.66,10.39-38.37
		c0-15-3.75-28.27-10.96-39.53c-7.5-11.25-17.89-19.91-31.16-25.97c-13.56-6.06-29.43-9.23-47.6-9.23h-92.32v45.01h88.86
		c11.54,0,20.48,2.6,26.54,7.79c5.77,5.19,8.94,12.69,8.94,21.93c0,9.52-3.17,16.73-8.94,21.93c-6.06,5.19-15,7.5-26.54,7.5h-88.86
		v97.81h57.13v-53.66h31.16l36.64,53.66h61.16L723.79,157.31z"/>
	<path id="path143446" class="st4" d="M905.48,18.82h-56.55v85.98l56.55-61.45V18.82z M964.05,108.26l82.51-89.44h-62.9
		l-78.19,83.96l-56.55,60.88v57.13h56.55v-50.49l21.35-22.79l57.7,73.28h66.36L964.05,108.26z"/>
	<path id="path143448" class="st5" d="M1119.98,18.82v201.96h153.49v-45.3h-96.36V18.82H1119.98z"/>
	<path id="path143450" class="st6" d="M1437.79,148.37l77.32-129.54h-55.39l-47.89,80.21l-47.89-80.21h-60.3l77.03,128.68v73.28
		h57.13L1437.79,148.37z"/>
	<path id="path143452" class="st7" d="M1689.68,148.37L1767,18.82h-55.39l-47.89,80.21l-47.89-80.21h-60.3l77.03,128.68v73.28h57.13
		V148.37z"/>
</g>
</svg>
